<svg width="32" height="32" viewBox="0 0 32 32" fill="none" xmlns="http://www.w3.org/2000/svg">
<path d="M12.0001 7C12.1317 6.99924 12.2621 7.02446 12.384 7.07423C12.5058 7.12399 12.6166 7.19732 12.7101 7.29L20.7101 15.29C20.8038 15.383 20.8782 15.4936 20.929 15.6154C20.9797 15.7373 21.0059 15.868 21.0059 16C21.0059 16.132 20.9797 16.2627 20.929 16.3846C20.8782 16.5064 20.8038 16.617 20.7101 16.71L12.7101 24.71C12.5218 24.8983 12.2664 25.0041 12.0001 25.0041C11.7338 25.0041 11.4784 24.8983 11.2901 24.71C11.1018 24.5217 10.996 24.2663 10.996 24C10.996 23.7337 11.1018 23.4783 11.2901 23.29L18.5901 16L11.2901 8.71C11.1963 8.61703 11.1219 8.50643 11.0712 8.38457C11.0204 8.26272 10.9943 8.13201 10.9943 8C10.9943 7.86799 11.0204 7.73728 11.0712 7.61542C11.1219 7.49356 11.1963 7.38296 11.2901 7.29C11.3835 7.19732 11.4943 7.12399 11.6162 7.07423C11.738 7.02446 11.8685 6.99924 12.0001 7Z" fill="#D3D3D3"/>
</svg>
