<svg width="50" height="77" viewBox="0 0 50 77" fill="none" xmlns="http://www.w3.org/2000/svg">
<circle cx="25" cy="27" r="25" transform="rotate(180 25 27)" fill="url(#paint0_linear_671_7)"/>
<path d="M25 77L3.34937 39.5H46.6506L25 77Z" fill="url(#paint1_linear_671_7)"/>
<path d="M33.6 21.12C33.6 22.4 33.36 23.5067 32.88 24.44C32.4267 25.3733 31.7867 26.1333 30.96 26.72C30.1333 27.3067 29.1467 27.72 28 27.96V28.12C30.16 28.3867 31.7733 29.1067 32.84 30.28C33.9067 31.4533 34.44 32.9867 34.44 34.88C34.44 36.5333 34.0667 38.0133 33.32 39.32C32.6 40.6 31.4667 41.6 29.92 42.32C28.4 43.04 26.4533 43.4 24.08 43.4C22.6667 43.4 21.36 43.28 20.16 43.04C18.96 42.8267 17.8 42.4267 16.68 41.84V38.56C17.8 39.1467 19.0133 39.6133 20.32 39.96C21.6267 40.28 22.88 40.44 24.08 40.44C26.4533 40.44 28.16 39.9467 29.2 38.96C30.24 37.9467 30.76 36.56 30.76 34.8C30.76 33.6 30.4667 32.64 29.88 31.92C29.32 31.1733 28.48 30.6267 27.36 30.28C26.2667 29.9333 24.92 29.76 23.32 29.76H20.8V26.76H23.36C24.8533 26.76 26.0933 26.5333 27.08 26.08C28.0667 25.6267 28.8 25 29.28 24.2C29.7867 23.3733 30.04 22.4267 30.04 21.36C30.04 19.9733 29.6133 18.9067 28.76 18.16C27.9067 17.3867 26.7333 17 25.24 17C24.28 17 23.4133 17.1067 22.64 17.32C21.8667 17.5067 21.1467 17.7867 20.48 18.16C19.84 18.5067 19.2 18.92 18.56 19.4L16.84 17C17.48 16.4667 18.2133 15.9733 19.04 15.52C19.8933 15.0667 20.84 14.7067 21.88 14.44C22.92 14.1733 24.04 14.04 25.24 14.04C28.04 14.04 30.1333 14.7067 31.52 16.04C32.9067 17.3733 33.6 19.0667 33.6 21.12Z" fill="white"/>
<defs>
<linearGradient id="paint0_linear_671_7" x1="49" y1="26.3333" x2="4" y2="26.3333" gradientUnits="userSpaceOnUse">
<stop stop-color="#00CCB9"/>
<stop offset="1" stop-color="#5640D3"/>
</linearGradient>
<linearGradient id="paint1_linear_671_7" x1="1" y1="52.6667" x2="46" y2="52.6667" gradientUnits="userSpaceOnUse">
<stop stop-color="#00CCB9"/>
<stop offset="1" stop-color="#5640D3"/>
</linearGradient>
</defs>
</svg>
