<svg width="60" height="62" viewBox="0 0 60 62" fill="none" xmlns="http://www.w3.org/2000/svg">
<path d="M57.3793 0.0685044C53.588 0.199427 39.8937 0.621291 39.5345 0.621291H39.1752L37.8937 1.86264C37.1509 2.58029 36.5878 3.08943 36.549 3.07489C36.515 3.06034 36.1412 2.97306 35.7189 2.88093C29.0149 1.40198 22.1071 2.26995 16.1167 5.34422C13.3885 6.75043 11.272 8.28756 9.12635 10.4357C7.71857 11.8467 6.79137 12.962 5.80107 14.4409C3.39813 18.0438 2.01462 21.8793 1.51947 26.321C1.43694 27.0726 1.43694 30.4184 1.51947 31.17C2.06802 36.1014 3.7525 40.3928 6.65545 44.2478C7.02439 44.7375 7.10206 44.8733 7.05351 44.9169C7.01953 44.9509 6.76225 45.1933 6.48069 45.46L5.96612 45.9449L6.43215 45.9789C6.68458 45.9934 7.15545 46.008 7.4807 46.008H8.06809L9.13121 47.065C10.0099 47.9379 11.2914 49.0774 11.7769 49.4168C11.8788 49.4895 11.8594 49.5186 10.6749 50.76C2.19423 59.6676 -0.00967696 61.9854 3.18943e-05 62C0.00488632 62.0097 3.82046 59.9925 8.47586 57.5195C13.1313 55.0513 17.0536 52.9711 17.1847 52.9081L17.4274 52.7869L18.0633 53.0584C23.9178 55.5217 30.5344 55.9872 36.7238 54.3676C43.5782 52.5735 49.5055 48.3161 53.1803 42.5409C54.3356 40.7322 55.3453 38.5938 55.9861 36.596C56.8405 33.9436 57.2191 31.5385 57.2191 28.7455C57.2191 24.7596 56.3648 21.0841 54.6123 17.5201C53.2774 14.8046 51.6317 12.511 49.5249 10.4114C49.2385 10.1253 49.0055 9.87804 49.0103 9.85379C49.0103 9.82955 51.4569 7.6378 54.4473 4.98539C57.4376 2.33299 59.9182 0.121843 59.9619 0.0733534C60.0541 -0.0236266 60.2046 -0.0236266 57.3793 0.0685044ZM31.2431 2.90032C32.6994 3.007 34.0732 3.20581 35.3597 3.48705C35.7189 3.56464 36.0199 3.63252 36.0247 3.64222C36.0344 3.65192 31.0684 8.47668 24.9955 14.3634C18.9226 20.2549 13.9614 25.0797 13.9711 25.0894C13.9808 25.0991 16.9371 25.2057 20.5391 25.327C24.1411 25.4482 27.18 25.55 27.2965 25.5549L27.5052 25.5694L25.4761 27.4896C24.3595 28.5418 19.8886 32.7702 15.5439 36.8821C11.1943 40.9941 7.62148 44.3593 7.60206 44.3593C7.55352 44.3593 6.74768 43.2634 6.30108 42.5894C5.68456 41.6632 5.33505 41.062 4.78164 39.9709C3.31075 37.0712 2.46608 34.1037 2.1554 30.7336C2.07773 29.8899 2.07773 27.6011 2.1554 26.7574C2.40297 24.0856 3.00492 21.6126 3.98552 19.2172C4.31562 18.422 5.16999 16.72 5.60689 15.9926C8.10207 11.8564 11.505 8.6076 15.8255 6.25098C19.2478 4.37927 23.0294 3.264 27.0877 2.92457C27.9906 2.84698 30.3645 2.83728 31.2431 2.90032ZM49.2288 11.0612C50.9181 12.7826 52.1997 14.4943 53.4327 16.6715C54.0686 17.7868 54.8259 19.5227 55.2919 20.9144C56.991 26.0155 56.991 31.4755 55.2919 36.5766C54.8259 37.9683 54.0686 39.7043 53.4327 40.8195C52.5201 42.4294 51.6171 43.7241 50.4715 45.0866C49.8404 45.8285 48.3501 47.3269 47.5977 47.967C43.7238 51.2691 39.0636 53.4221 33.9713 54.2707C32.4033 54.5325 31.0441 54.6392 29.3013 54.6392C26.3256 54.6392 23.578 54.2173 20.7527 53.3348C20.1071 53.136 18.8449 52.6753 18.4226 52.4911L18.1653 52.3795L27.2868 47.5402C32.3062 44.8781 36.4276 42.6815 36.4519 42.6573C36.4762 42.6379 36.2432 42.6282 35.9179 42.6379C35.1606 42.667 22.9857 42.7737 22.9615 42.7543C22.9566 42.7446 29.1363 38.0313 36.6995 32.2853L50.4569 21.8357L43.0539 21.8066C38.9811 21.7872 35.6412 21.7678 35.6315 21.7581C35.6218 21.7435 38.3112 19.3384 41.6122 16.4048C44.9132 13.4711 47.8016 10.9012 48.0297 10.6975C48.2579 10.489 48.4618 10.3193 48.4763 10.3193C48.4909 10.3193 48.8307 10.6539 49.2288 11.0612ZM12.2575 46.0904C13.6847 46.1146 14.8934 46.1292 14.942 46.1243C14.9856 46.1243 15.0245 46.134 15.0245 46.1534C15.0245 46.1825 13.0633 48.2724 12.5342 48.8058L12.3303 49.0095L11.8448 48.6216C10.8303 47.8069 9.05354 46.168 9.05354 46.0467C9.05354 46.0128 9.17004 46.008 9.35936 46.0274C9.52441 46.0419 10.8303 46.071 12.2575 46.0904Z" fill="black"/>
</svg>
