<svg width="100" height="62" viewBox="0 0 100 62" fill="none" xmlns="http://www.w3.org/2000/svg">
<path d="M0.0546619 2.7175C0.249883 12.8021 1.28065 21.9285 3.19381 30.513C5.32563 40.1028 8.55068 48.3181 12.3302 53.8002C14.7119 57.256 17.0389 59.4787 19.6627 60.7903C21.5602 61.7406 22.63 62.0077 24.5432 61.9998C25.652 61.9998 25.9566 61.9684 26.7062 61.7878C27.7058 61.56 28.76 61.1594 29.6189 60.6882C33.9606 58.3241 37.9822 53.007 41.1994 45.3964C45.9082 34.2436 48.6803 19.101 48.9614 2.96097L49.0083 -2.88002e-06H24.5041H0L0.0546619 2.7175ZM6.23145 14.3336C7.03576 14.4357 8.67562 14.7892 9.66734 15.0798C12.3692 15.873 14.5166 17.0433 16.0159 18.5277C18.7568 21.2452 20.1702 24.3711 19.5768 26.3974C18.8818 28.7458 16.0628 29.1228 12.9705 27.2771C11.3384 26.2953 9.41746 24.5125 8.51163 23.1223C7.23098 21.1824 6.26269 18.512 5.76292 15.5746C5.52866 14.2158 5.52866 14.1923 5.70826 14.2394C5.77854 14.2629 6.02061 14.3022 6.23145 14.3336ZM43.2844 15.5039C42.7456 18.724 41.6289 21.6457 40.1687 23.625C39.3565 24.7245 37.7479 26.2011 36.4517 27.0415C34.3511 28.3924 32.2817 28.8086 30.9074 28.1489C30.3608 27.8976 29.7595 27.2378 29.533 26.6409C29.2831 26.0047 29.2753 24.8031 29.5252 23.9156C29.7829 22.9888 30.5326 21.5279 31.2666 20.5383C32.1021 19.4073 33.6639 17.8444 34.5775 17.2396C36.5376 15.9359 39.2472 14.9305 42.074 14.4593C43.3703 14.2394 43.4015 14.2394 43.4249 14.365C43.4406 14.42 43.3781 14.9384 43.2844 15.5039ZM14.2824 39.1053C15.5942 41.5243 18.1321 43.4172 21.1854 44.2497C22.7081 44.6581 25.0508 44.7681 26.6125 44.501C29.861 43.9434 32.5941 42.3097 34.2183 39.9378C34.6869 39.2624 35.2022 38.2492 35.335 37.7465C35.3897 37.5502 35.4521 37.3853 35.4756 37.3853C35.5693 37.3853 35.7176 38.367 35.7645 39.231C35.8348 40.6133 35.5693 41.8385 34.9133 43.1737C33.5858 45.899 30.8059 47.9725 27.4481 48.7422C22.4348 49.8732 17.1248 47.9568 14.6416 44.1162C13.5718 42.4511 13.072 40.4876 13.2828 38.7362C13.3297 38.3199 13.4156 37.8329 13.4624 37.6601L13.5483 37.346L13.7748 37.9665C13.8997 38.3042 14.1262 38.8147 14.2824 39.1053Z" fill="black"/>
<path d="M51.0387 2.96097C51.3901 22.9966 55.5678 41.2966 62.3146 52.2922C64.3293 55.5831 66.8125 58.3634 69.1161 59.9107C70.5452 60.8689 71.8102 61.4422 73.2939 61.7878C74.0435 61.9684 74.3481 61.9998 75.4569 61.9998C77.3701 62.0077 78.4399 61.7406 80.3374 60.7903C84.1325 58.8896 87.584 54.8212 90.6763 48.6165C96.2987 37.3224 99.5862 21.041 99.9454 2.7175L100 -2.88002e-06H75.496H50.9918L51.0387 2.96097ZM68.8272 11.302C69.9204 11.7182 70.8653 12.6686 71.9351 14.4514C72.2787 15.0091 72.3099 15.1112 72.2553 15.3547C72.2241 15.5117 72.1303 15.7316 72.0523 15.8495C71.0371 17.4046 66.7969 20.1692 59.7533 23.8684C59.0818 24.214 58.5117 24.5046 58.4883 24.5046C58.4336 24.5046 58.4493 24.3711 58.7226 23.0124C59.644 18.3863 61.401 14.6478 63.5094 12.8414C64.3606 12.1031 65.6959 11.4119 66.672 11.1842C67.3045 11.0428 68.2728 11.0899 68.8272 11.302ZM84.6401 11.3491C85.9364 11.7811 87.2873 12.6921 88.1463 13.7132C89.6456 15.4803 90.9106 18.2685 91.7305 21.5594C91.996 22.6196 92.3552 24.4261 92.3084 24.4732C92.2693 24.5046 89.6924 23.1851 88.4196 22.4861C81.7977 18.834 78.5024 16.4228 78.5024 15.229C78.5024 14.8206 79.6034 13.1634 80.4077 12.3701C81.4072 11.3727 82.1725 11.0506 83.3516 11.1056C83.7967 11.1292 84.234 11.2156 84.6401 11.3491ZM76.5033 34.4086C79.7986 34.6992 82.6332 36.0422 84.687 38.2885C85.093 38.7362 85.8349 39.8122 86.1082 40.3541C86.7251 41.5793 87.0608 43.1815 86.9906 44.5639C86.9437 45.4357 86.7953 46.4174 86.7016 46.4174C86.6782 46.4174 86.6157 46.2525 86.5611 46.0483C86.4361 45.577 85.8739 44.446 85.4757 43.857C81.501 38.0136 71.9742 37.1653 66.7422 42.1919C65.5631 43.3308 64.8369 44.4068 64.3215 45.7812L64.0716 46.4488L63.9857 46.1347C63.9389 45.9697 63.8608 45.4514 63.8061 44.988C63.6343 43.4643 63.9076 42.0034 64.6417 40.4876C66.3987 36.8355 70.4749 34.4714 75.2226 34.33C75.4179 34.33 75.9957 34.3614 76.5033 34.4086Z" fill="black"/>
</svg>
