<svg width="90" height="62" viewBox="0 0 90 62" fill="none" xmlns="http://www.w3.org/2000/svg">
<path d="M55.2992 0.0698301C55.1375 0.104745 54.8211 0.223454 54.5891 0.33518C54.2446 0.509752 54.104 0.642427 53.7596 1.11726C53.5276 1.43149 53.1269 1.95521 52.8597 2.27642L52.3887 2.856L52.3184 3.89646C52.227 5.25114 52.2973 5.77485 52.6699 6.54996C52.9933 7.2273 53.0284 7.5136 52.7964 7.60437C52.5785 7.68817 52.4168 7.87671 52.2832 8.19792C52.22 8.35154 52.1215 8.51215 52.0653 8.56801C52.0091 8.62388 51.9598 8.81241 51.9528 8.99397C51.9177 9.85985 51.988 10.1461 52.3114 10.4674C52.6207 10.7746 52.5996 10.8794 52.2059 10.9422C52.0583 10.9631 51.8614 11.0539 51.7771 11.1307C51.6435 11.2564 51.6154 11.3472 51.6224 11.7662C51.6224 12.0315 51.6646 12.5133 51.7138 12.8346C51.756 13.1488 51.7841 13.4281 51.763 13.4421C51.7489 13.463 51.6505 13.477 51.5521 13.477C51.2217 13.484 50.3992 13.8191 49.9281 14.1404C48.965 14.7968 48.0862 15.8163 46.7224 17.8343C46.2584 18.5326 45.8155 19.1261 45.7382 19.168C45.6679 19.203 45.3937 19.3845 45.1336 19.5731C44.8805 19.7546 44.3251 20.1107 43.9033 20.3621C42.3637 21.2908 41.6958 21.7447 41.6536 21.9053C41.6326 22.0031 41.5623 22.0659 41.4849 22.0659C41.4146 22.0659 41.3514 22.0939 41.3514 22.1358C41.3514 22.2754 40.3601 22.8899 40.0016 22.9737C39.3829 23.1273 37.3301 22.9598 35.6921 22.6316C32.2684 21.9403 28.4159 20.9836 25.4281 20.0758C24.3806 19.7546 24.3665 19.7546 23.1081 19.7127L21.8427 19.6778L21.3154 20.02C20.7811 20.3551 20.3312 20.6694 19.3962 21.3467C19.115 21.5492 18.8689 21.7168 18.8408 21.7168C18.8197 21.7168 18.6088 21.9612 18.3838 22.2545C18.1519 22.5547 17.7722 23.0505 17.5402 23.3648C16.8161 24.3075 16.4646 25.1314 16.0428 26.9191C15.7616 28.0852 15.6772 29.2444 15.7616 30.9412C15.8741 33.1269 16.092 34.2441 16.7739 36.1155C17.3434 37.6797 18.2573 39.4603 19.825 42.037C20.8233 43.692 21.7653 45.0117 22.7988 46.2337C23.2768 46.7924 24.008 47.6583 24.4227 48.154C24.8305 48.6498 25.3788 49.2992 25.6319 49.5995C26.11 50.1651 26.2084 50.3676 26.1381 50.6539C26.117 50.7447 25.8077 51.1148 25.4562 51.4709C24.6196 52.3228 24.1415 52.9164 23.4456 53.9498C23.1362 54.4107 22.623 55.095 22.3067 55.4721C21.6247 56.2891 21.5755 56.3729 21.6107 56.6732C21.6247 56.8058 21.6107 56.9176 21.5755 56.9315C21.4631 56.9665 21.3928 57.6228 21.4631 57.9022C21.5193 58.1116 21.5966 58.1954 21.8989 58.37C22.3278 58.6074 23.0097 58.7611 23.4596 58.7122C23.8955 58.6633 24.7391 58.2443 25.0625 57.9161C25.3367 57.6438 25.5476 57.2527 26.0959 55.9819C26.2576 55.6118 26.4545 55.2277 26.5248 55.1369C26.6021 55.0392 27.038 54.7738 27.502 54.5434C28.0362 54.2711 28.3878 54.0406 28.4791 53.9149C28.7111 53.5937 28.9783 52.9862 28.9783 52.7767C28.9783 52.679 28.9994 52.5463 29.0205 52.4834C29.0697 52.3508 29.1329 52.3717 30.5601 53.07C32.8589 54.1942 36.9786 55.5629 39.8047 56.1355C41.0561 56.3869 42.9331 56.6243 44.3392 56.7081C46.1248 56.8128 52.691 56.75 55.9741 56.5964C58.519 56.4776 59.0673 56.4986 59.0673 56.7011C59.0673 56.8827 58.4416 58.2583 58.3151 58.356C58.2097 58.4329 58.2167 58.4957 58.3362 59.0055L58.4768 59.5641H58.1042C57.7105 59.5641 55.6999 59.3686 55.6296 59.3197C55.6015 59.3057 55.1586 59.2638 54.6383 59.2149C53.9494 59.1591 53.2534 59.1591 52.1075 59.208C50.2656 59.2987 49.6258 59.3616 48.276 59.62C47.3973 59.7875 47.1372 59.8085 45.8506 59.8015C44.6696 59.8015 44.3181 59.7736 43.9174 59.6688C43.4604 59.5431 43.1229 59.5362 39.5587 59.5292C37.1051 59.5292 35.6569 59.5012 35.5866 59.4593C35.5234 59.4174 34.047 59.3755 31.7552 59.3476C29.5548 59.3197 27.7832 59.2708 27.4317 59.2219C26.6794 59.1172 24.6688 59.2219 23.2628 59.4384C22.2996 59.585 22.2856 59.585 21.2732 59.4593C20.4226 59.3546 19.9516 59.3406 18.3065 59.3755C17.2379 59.3965 15.846 59.4524 15.2203 59.5012C13.997 59.599 12.3168 59.5222 11.192 59.3197C10.9038 59.2708 10.489 59.208 10.2781 59.18C9.61725 59.1102 8.01437 59.2708 6.82628 59.5292C5.13904 59.8923 4.74535 59.9272 2.9386 59.8434C2.03171 59.8015 1.1881 59.7247 0.963131 59.6688C0.745196 59.613 0.47805 59.5641 0.372598 59.5641H0.175754L0.126543 60.2065C0.0984221 60.5626 0.0632714 61.0305 0.0351508 61.247L0 61.645L0.47805 61.7497C1.47633 61.9732 2.20044 62.029 3.63459 61.9872C5.33588 61.9313 6.61537 61.8335 7.88783 61.659C9.53289 61.4355 10.1234 61.4215 11.192 61.5891C12.7035 61.8265 14.461 61.8475 16.4506 61.659C17.6668 61.5472 18.3206 61.5193 18.9814 61.5472C21.4279 61.659 22.0676 61.6659 23.4807 61.5891C25.5687 61.4704 34.736 61.4355 35.7975 61.5402C36.2545 61.5821 37.9909 61.624 39.8047 61.624C41.9911 61.631 43.2425 61.6659 43.7557 61.7288C44.29 61.7916 45.0141 61.8056 46.2865 61.7777C48.269 61.7358 48.6768 61.6869 49.893 61.3587C50.7296 61.1352 50.7436 61.1352 52.2481 61.1492C53.8088 61.1632 54.7508 61.219 56.9231 61.4215C58.0339 61.5263 58.3643 61.5333 59.6297 61.4565C60.4242 61.4146 61.324 61.3308 61.6333 61.2749C63.3698 60.9537 63.4682 60.9467 64.1361 60.9886C64.5087 61.0095 65.0781 61.0794 65.4015 61.1352C67.2856 61.4704 67.6441 61.5193 68.3682 61.5193C70.1258 61.5193 71.5458 61.3587 73.3034 60.9607C73.9642 60.814 74.6321 60.6744 74.8008 60.6534C75.2437 60.5906 76.8677 60.7302 78.2245 60.9397C79.9328 61.2121 81.0858 61.1981 82.7871 60.8978C84.7625 60.5487 86.4217 60.5906 88.5237 61.0305C89.0439 61.1422 89.5922 61.2539 89.7399 61.2819L90 61.3238V60.2694V59.2149L89.8102 59.1381C89.6977 59.0962 89.1212 58.9217 88.5237 58.7471C87.4973 58.4468 87.3778 58.4259 86.3795 58.3979C85.1211 58.356 83.933 58.4538 82.6675 58.6982C81.4092 58.9426 80.4601 58.9077 78.5057 58.5446C77.1629 58.2932 77.0364 58.2792 75.5882 58.2792C74.4282 58.2723 73.9431 58.3002 73.5143 58.391C72.98 58.5027 71.8622 58.8309 71.4052 59.0055C71.1381 59.1032 69.8938 59.2848 69.4157 59.2848H69.0431L69.0853 58.9077C69.1345 58.5586 69.1204 58.5236 68.9728 58.4259C68.8814 58.37 68.6283 58.2862 68.4174 58.2373C68.2065 58.1885 67.7917 58.0279 67.5035 57.8812C67.0044 57.6298 66.5685 57.4902 65.4296 57.2039C65.0148 57.0991 64.9305 57.0572 64.9164 56.9246C64.9024 56.8338 64.8391 56.743 64.7758 56.722C64.6212 56.6662 64.3751 56.4776 64.0095 56.1355C63.6791 55.8282 63.5596 55.535 63.7143 55.4372C63.89 55.3325 64.4876 55.2417 65.7108 55.1299C67.9324 54.9274 69.9219 54.6132 73.5846 53.88C77.2051 53.1538 79.504 52.6091 80.7553 52.1832C83.3917 51.2824 85.4726 49.6693 86.035 48.0842C86.1826 47.6652 86.0491 46.3106 85.81 45.8218C85.6554 45.5005 85.571 45.4237 85.1984 45.2352C84.9594 45.1165 84.7344 44.9838 84.6922 44.9349C84.6079 44.8302 84.1931 44.6835 82.1965 44.0551C79.04 43.0635 77.9784 42.5677 74.7446 40.5636C73.1768 39.593 72.8183 39.3486 71.6794 38.5107C70.2945 37.4842 67.6019 35.3265 66.3084 34.1952C65.5069 33.4969 62.4277 31.2764 60.3679 29.9077C59.7563 29.5027 58.5612 28.8394 57.8652 28.5181C57.5277 28.3645 57.1833 28.1899 57.0919 28.1271C56.9302 28.0224 56.9302 28.0084 57.0216 27.6802C57.0708 27.4917 57.1692 27.1355 57.2395 26.8841C57.3098 26.6328 57.5418 26.116 57.7527 25.732C58.069 25.1803 59.1447 22.7154 59.3767 22.031C59.4048 21.9542 59.7422 21.6679 60.1289 21.4026C60.5155 21.1302 60.9866 20.7532 61.1693 20.5646C61.8583 19.8454 62.4207 18.5605 63.0112 16.3958C63.6721 13.9448 64.0658 12.6809 64.1783 12.6181C64.2345 12.5832 64.3048 12.4784 64.3399 12.3877C64.4524 12.1083 64.4313 12.1014 67.0676 13.477C67.6933 13.8052 68.2136 14.1124 68.2206 14.1613C68.2346 14.2172 68.6213 14.3987 69.0783 14.5663C69.8094 14.8317 71.3068 15.516 71.5669 15.6906C71.7216 15.8023 71.5037 16.1933 70.871 16.9196C70.3648 17.4922 69.9219 18.2812 69.2259 19.8454C68.8322 20.7182 68.4174 21.5492 68.305 21.6889C68.1925 21.8355 67.9464 22.2475 67.7496 22.6036C67.5598 22.9528 67.1801 23.5114 66.906 23.8326L66.4138 24.4192L65.275 24.4681C64.347 24.51 64.0798 24.503 63.8197 24.4122C63.2151 24.2097 62.2239 24.098 62.0411 24.2167C61.9919 24.2446 61.9427 24.3494 61.9286 24.4401C61.9005 24.6496 61.7177 24.7474 60.6491 25.1524C59.8196 25.4666 59.461 25.725 59.5032 25.9903C59.5243 26.137 59.6157 26.1579 61.1412 26.3814C62.5894 26.5978 62.7722 26.6397 62.9128 26.7864C62.9972 26.8772 63.0745 26.961 63.0886 26.961C63.1026 26.9679 63.9041 26.9959 64.8672 27.0168C66.4771 27.0587 66.6458 27.0727 66.906 27.2123C67.1309 27.331 67.2223 27.4358 67.3559 27.75C67.5105 28.1341 67.9042 28.56 68.1011 28.56C68.1784 28.56 68.1714 28.4902 68.0519 28.2388C67.8621 27.7989 67.8199 27.2473 67.9253 26.3953L68.0097 25.6831L68.5862 24.7474C69.2118 23.7139 69.9008 22.841 71.4615 21.0534C72.038 20.404 72.7691 19.5172 73.0925 19.0982C73.8658 18.0857 74.7657 16.6053 75.1101 15.7953L75.3843 15.1459L75.1734 14.8875C74.8571 14.4895 74.1892 13.882 73.7814 13.6236C73.5776 13.4979 72.741 13.0231 71.9255 12.5762C70.0765 11.5567 68.4104 10.3975 67.5316 9.5107C67.0325 9.00793 66.8427 8.86828 66.688 8.86129C65.978 8.84035 65.992 8.84733 65.9709 8.62388C65.9358 8.35853 65.8725 8.32361 65.521 8.35853L65.2328 8.39344L65.282 8.07223C65.3663 7.50661 65.2539 7.30411 64.6774 7.01781C64.4032 6.88513 64.1431 6.73151 64.1009 6.67565C64.0587 6.62677 63.7072 6.46616 63.3206 6.31952C62.4348 5.98434 61.2045 5.37683 60.9022 5.12545C60.7757 5.0207 60.5929 4.80423 60.4945 4.65061C60.396 4.49 60.2765 4.34336 60.2273 4.31543C60.1781 4.2875 60.1148 4.11991 60.0937 3.94534C60.0656 3.77775 60.0023 3.58921 59.9531 3.54033C59.9039 3.49145 59.8196 3.33084 59.7703 3.17722C59.5665 2.54177 58.7369 1.35468 58.1745 0.872863C58.0269 0.747171 57.6824 0.50277 57.4012 0.321214L56.895 1.20803e-06L56.2412 0.0069841C55.8827 0.013967 55.4538 0.0418986 55.2992 0.0698301ZM50.8702 18.8678C50.8421 19.3426 50.7928 19.7476 50.7577 19.7686C50.6944 19.8105 50.6733 23.7558 50.7366 24.2656C50.7928 24.6985 50.6593 24.3633 50.5257 23.7209C50.4202 23.2111 50.3921 23.1692 50.1672 23.0645C49.9422 22.9528 49.9211 22.9528 49.8367 23.0715C49.7524 23.1832 49.7172 23.1902 49.5837 23.1134C49.4431 23.0436 49.3868 23.0575 49.1618 23.2321C49.0212 23.3438 48.8385 23.5743 48.7611 23.7488C48.6768 23.9164 48.5713 24.098 48.5291 24.1399C48.3253 24.3633 45.3515 24.0631 44.9648 23.7837C44.8453 23.693 44.8524 23.679 45 23.4276C45.2812 22.9458 45.8717 22.3383 46.4974 21.8844C46.8349 21.64 47.1301 21.4026 47.1653 21.3467C47.1934 21.2978 47.3973 21.1302 47.6082 20.9836C47.8191 20.83 48.3815 20.3691 48.8525 19.9571C49.3306 19.5451 49.7805 19.196 49.8508 19.168C49.9281 19.1471 50.0617 19.0074 50.1531 18.8678C50.3007 18.6234 50.828 18.0159 50.8913 18.0159C50.9053 18.0159 50.8983 18.3999 50.8702 18.8678ZM38.1667 27.0378C38.1456 27.0936 38.1245 27.0727 38.1245 26.9959C38.1175 26.9191 38.1386 26.8772 38.1597 26.9051C38.1808 26.926 38.1878 26.9889 38.1667 27.0378ZM30.3703 27.352C30.3 27.366 30.1875 27.366 30.1242 27.352C30.0539 27.331 30.1101 27.3171 30.2437 27.3171C30.3773 27.3171 30.4335 27.331 30.3703 27.352ZM24.7532 57.5111C24.6618 57.6089 24.5212 57.7206 24.4438 57.7625C24.3665 57.8044 24.4298 57.7206 24.5844 57.5879C24.9149 57.2877 24.9922 57.2527 24.7532 57.5111ZM22.6793 58.0628C22.4754 58.2164 22.384 58.1815 22.5738 58.0209C22.6652 57.9441 22.7566 57.9022 22.7777 57.9231C22.7988 57.9441 22.7566 58.0069 22.6793 58.0628ZM23.776 58.377C23.7197 58.4119 23.558 58.4398 23.4245 58.4398L23.1784 58.4259L23.4245 58.377C23.558 58.3491 23.7197 58.3211 23.776 58.3141C23.8674 58.3072 23.8674 58.3141 23.776 58.377Z" fill="black"/>
</svg>
