<svg width="62" height="63" viewBox="0 0 62 63" fill="none" xmlns="http://www.w3.org/2000/svg">
<path d="M53.3226 0.913602C52.3198 1.17212 51.5883 1.72395 50.6631 2.90219C49.0014 5.02998 47.5627 9.08172 46.7682 13.8742C46.5744 15.0326 46.3468 16.7776 46.3807 16.8124C46.4049 16.8372 48.0859 17.0709 53.5018 17.7868C55.5994 18.0701 56.7039 18.2342 56.8057 18.2889C56.8929 18.3336 57.1593 18.5673 57.4015 18.8159C57.9247 19.3379 58.0943 19.6709 58.322 20.5658C58.7676 22.3257 58.8112 24.7319 58.4382 26.6161C58.3171 27.2326 58.0313 28.0479 57.8278 28.3561C57.6244 28.6693 57.0479 29.2559 56.8347 29.3653C56.7572 29.4051 56.4472 29.4598 56.142 29.4946C55.8368 29.5294 54.6499 29.6785 53.5018 29.8277C52.3586 29.9768 50.5468 30.2105 49.481 30.3447C47.2381 30.6281 46.3855 30.7474 46.3661 30.7673C46.3564 30.7722 46.4097 31.2246 46.4776 31.7665C46.8506 34.7444 47.4174 37.3843 48.1343 39.5419C48.4783 40.571 49.0838 42.1122 49.3066 42.5148C49.4181 42.7137 49.5295 42.9275 49.5537 42.9921C49.5779 43.0567 49.7378 43.3451 49.9073 43.6334C50.9779 45.4281 51.9323 46.323 53.2112 46.7406C53.589 46.8649 54.4319 46.85 54.8583 46.7108C55.8756 46.3876 56.9074 45.458 57.8036 44.0659C58.4479 43.0617 59.3296 41.1129 59.8237 39.5916C60.3469 37.9858 60.933 35.5747 61.1995 33.8993C62.0327 28.7389 62.2216 23.2305 61.7372 17.9657C61.5337 15.7733 61.059 12.7656 60.6424 11.0057C59.4507 6.00935 57.6486 2.52933 55.6188 1.30635C54.9018 0.87383 54.0396 0.724686 53.3226 0.913602Z" fill="#1b3671"/>
<path d="M47.3641 7.21721C46.8021 8.1767 45.6831 9.40962 44.661 10.21C43.2173 11.3386 41.362 12.1439 39.4049 12.4969C38.5086 12.661 38.1938 12.6908 36.9875 12.7455C31.7896 12.9791 20.759 14.227 12.7368 15.4848C8.498 16.1509 2.22943 17.354 1.79828 17.5877C1.44949 17.7766 0.974744 18.4378 0.751904 19.0543C0.141518 20.7197 -0.110387 22.8674 0.0446317 25.0996C0.160896 26.7501 0.427334 27.9383 0.921456 28.9773C1.33322 29.8573 1.63842 30.1257 2.39413 30.2898C4.47235 30.7322 5.12149 30.8665 6.24538 31.0852C6.95265 31.2244 8.09592 31.4382 8.78381 31.5625C9.47171 31.6818 10.0433 31.7912 10.053 31.8011C10.0627 31.8061 10.0385 31.9503 9.99974 32.1093C9.64126 33.7151 8.75959 38.1099 8.25093 40.8343C7.16096 46.7006 6.63777 50.3198 6.21147 54.9284C6.10489 56.0768 6.09521 57.8267 6.19209 58.2344C6.2696 58.5625 6.50697 59.3033 6.63777 59.6115C6.79279 59.9794 7.16096 60.5263 7.46131 60.8295C7.91667 61.2869 8.27031 61.4311 9.32153 61.5852C9.80112 61.6548 11.0897 61.8437 12.1797 62.0078C17.3922 62.7883 19.5285 62.9722 20.5846 62.7386C22.1154 62.4005 23.404 61.4758 23.8981 60.3622C24.2033 59.6761 24.213 59.5021 24.0774 57.2401C23.84 53.3823 23.8061 46.7603 23.9999 42.7731C24.0822 41.1077 24.1888 39.3727 24.2954 37.9757C24.4213 36.3102 24.6393 33.8742 24.6635 33.8444C24.6732 33.8394 25.2691 33.8941 25.986 33.9736C30.8304 34.5056 34.5266 34.8437 36.4014 34.9182C38.6346 35.0127 39.8893 35.2165 41.4152 35.7236C41.8803 35.8777 42.9654 36.3798 43.3336 36.6085C43.508 36.7179 43.663 36.8074 43.6727 36.8074C43.726 36.8074 44.3994 37.2846 44.8063 37.6078C45.3343 38.0204 46.2402 38.9401 46.681 39.4969C47.025 39.9295 47.5143 40.6702 47.6451 40.9486C47.6935 41.048 47.7468 41.1326 47.771 41.1326C47.7952 41.1326 47.7662 41.0381 47.708 40.9188C47.5966 40.6951 46.7828 38.2143 46.6713 37.752C45.7897 34.1377 45.3779 31.3736 45.1357 27.3864C45.0582 26.074 45.0582 21.4803 45.1357 20.2027C45.3149 17.354 45.4942 15.788 45.8769 13.6155C46.1627 11.9998 46.5018 10.4685 46.87 9.16105C47.0153 8.64402 47.5385 7.07801 47.616 6.92886C47.6451 6.87417 47.6499 6.82943 47.6305 6.82943C47.6112 6.8344 47.49 7.00343 47.3641 7.21721ZM22.7064 33.6058L22.9583 33.6356V33.8146C22.9583 33.919 22.905 34.6 22.8372 35.3408C22.1832 42.7881 22.0331 50.1558 22.3819 58.0107C22.44 59.2983 22.44 59.3033 22.3334 59.5568C22.2753 59.696 22.1348 59.8998 22.0234 60.0142C21.7957 60.2379 21.0061 60.745 20.9818 60.6754C20.977 60.6555 21.0206 60.5263 21.0884 60.392C21.4081 59.7308 21.4275 59.4922 21.3113 56.917C21.2192 54.7892 21.2095 47.0735 21.3016 44.8612C21.4469 41.3314 21.6649 38.0254 21.941 35.1469C22.0234 34.3316 22.0864 33.6306 22.0864 33.5908C22.0864 33.5362 22.13 33.5212 22.2704 33.5461C22.3673 33.561 22.5659 33.5859 22.7064 33.6058Z" fill="#1b3671"/>
<path d="M55.8127 19.3177C55.5462 19.4668 55.4833 19.5364 55.2798 19.9242C54.805 20.8191 54.5774 21.8581 54.5144 23.3744C54.4223 25.532 54.9698 27.794 55.7012 28.2912C56.3019 28.6988 56.8833 28.1768 57.2999 26.8644C57.7601 25.4177 57.8182 22.927 57.4355 21.2466C57.2369 20.3865 56.8009 19.5315 56.4667 19.3475C56.2438 19.2282 56.0064 19.2183 55.8127 19.3177Z" fill="#1b3671"/>
</svg>
