<svg width="75" height="62" viewBox="0 0 75 62" fill="none" xmlns="http://www.w3.org/2000/svg">
<path d="M27.244 0.0659751C21.7527 0.476366 17.1405 2.66903 15.7281 5.54176C15.3589 6.29805 15.2652 6.70258 15.2652 7.50577C15.271 8.52003 15.523 9.2939 16.1501 10.1733L16.4431 10.5778L15.2359 10.8241C10.5709 11.7621 6.74987 13.7906 3.85479 16.8568C0.731155 20.1693 -0.605036 24.578 0.256455 28.7288C0.67255 30.7339 1.65711 32.78 3.06363 34.5623C3.64382 35.2951 4.93312 36.5849 5.70671 37.2005C8.84207 39.7097 12.8038 41.2927 17.3105 41.8438C18.5646 41.9903 21.8055 41.9962 23.0244 41.8438C24.8353 41.6151 26.5114 41.2516 28.0059 40.7533L28.8556 40.466L29.512 40.9057C31.8445 42.4476 34.7747 43.4736 37.998 43.8664C38.8595 43.9661 42.1121 43.9719 42.9501 43.8664C45.5229 43.5498 47.703 42.9166 49.7072 41.9082C51.7467 40.8881 53.2177 39.7332 54.6476 38.0271L54.8821 37.7398L55.3743 37.9275C56.4409 38.332 57.865 38.6779 59.3009 38.8831C59.6642 38.93 60.4261 38.9593 61.4692 38.9534C63.2098 38.9534 63.8779 38.8831 65.3547 38.5489C68.244 37.904 70.9398 36.3973 72.6452 34.4743C74.0986 32.8386 74.8839 31.0094 74.9894 29.0454C75.1125 26.6593 74.1631 24.3728 72.2525 22.4557C71.2504 21.4473 70.1486 20.6617 68.7773 19.9875C68.3436 19.7706 68.2674 19.712 68.2908 19.6123C68.3084 19.5478 68.3553 19.0847 68.3963 18.5805C68.619 15.567 67.7693 12.4598 65.9818 9.78051C65.2727 8.7135 64.8039 8.14481 63.872 7.21264C60.766 4.09953 56.4234 2.07103 51.6236 1.49648C50.5629 1.3675 48.1249 1.31474 47.0817 1.40268C44.9251 1.57856 42.9149 2.0124 41.0513 2.69248L40.2543 2.97975L39.7386 2.6573C36.6559 0.710875 31.8914 -0.274063 27.244 0.0659751Z" fill="black"/>
<path d="M56.3295 42.2713C56.0541 42.5293 55.5149 42.9924 55.134 43.2973C53.4579 44.6575 52.8953 45.5779 52.8953 46.9615C52.8953 47.6005 53.0183 48.0051 53.3524 48.4448C53.5809 48.7438 54.167 49.16 54.4835 49.248C54.8351 49.3418 56.2416 49.3242 56.605 49.2128C57.0328 49.0838 57.484 48.6558 57.7477 48.1106C58.1345 47.3191 58.1404 46.5746 57.777 44.7571C57.6833 44.2705 57.5485 43.5142 57.4899 43.0745C57.4254 42.6348 57.3317 42.1951 57.2789 42.1013C57.191 41.9313 57.0328 41.8023 56.9038 41.8023C56.8687 41.8023 56.6108 42.0134 56.3295 42.2713Z" fill="black"/>
<path d="M18.3713 43.2626C18.1017 43.5147 17.5567 43.9837 17.1582 44.3061C15.57 45.5842 15.0367 46.3933 14.9019 47.7241C14.7964 48.7677 15.3238 49.694 16.2674 50.1395L16.6366 50.3154L17.6153 50.292C18.4885 50.2744 18.6233 50.2568 18.8343 50.1454C19.3324 49.8757 19.8012 49.2543 19.9829 48.6035C20.1236 48.0993 20.0708 47.0968 19.8364 45.936C19.725 45.3556 19.5785 44.5172 19.5141 44.0775C19.4496 43.6378 19.3558 43.1922 19.3031 43.0984C19.2152 42.9225 19.0569 42.7994 18.9222 42.7994C18.887 42.7994 18.6409 43.0046 18.3713 43.2626Z" fill="black"/>
<path d="M46.4781 44.9869C46.1968 45.2565 45.6401 45.7373 45.2357 46.0656C43.7647 47.244 43.249 47.9944 43.0556 49.2197C42.9735 49.7474 43.0439 50.3044 43.249 50.7441C43.4189 51.1134 43.9464 51.6469 44.3156 51.8228C44.7258 52.0221 45.4525 52.0983 46.1734 52.0163C46.8297 51.9459 47.0993 51.8404 47.4158 51.5238C48.2538 50.6854 48.3828 49.6829 47.9315 47.4727C47.8436 47.0154 47.7088 46.2591 47.6385 45.7901C47.5682 45.3269 47.4861 44.8931 47.4509 44.8227C47.3748 44.6761 47.1696 44.5061 47.0642 44.5003C47.0173 44.5003 46.7535 44.7172 46.4781 44.9869Z" fill="black"/>
<path d="M27.9648 44.9334C27.8769 45.0037 27.6542 45.2031 27.4784 45.3731C27.3026 45.5431 26.8279 45.9476 26.4235 46.2759C25.1694 47.2902 24.6537 47.8941 24.3255 48.7676C24.1907 49.1135 24.1731 49.2483 24.1672 49.9226C24.1672 50.6495 24.1731 50.7023 24.3372 51.0365C24.5657 51.4996 24.9877 51.91 25.4565 52.1328C25.7847 52.2852 25.9312 52.3146 26.4411 52.338C27.1209 52.3732 27.8007 52.2852 28.1113 52.1269C28.5099 51.9218 28.8966 51.4351 29.1252 50.8606C29.2424 50.5499 29.26 50.415 29.26 49.6881C29.2541 48.9787 29.2248 48.7266 29.0432 47.8354C28.926 47.2667 28.7912 46.4987 28.7384 46.1352C28.6271 45.3086 28.5626 45.0682 28.4337 44.9568C28.252 44.8044 28.1406 44.7985 27.9648 44.9334Z" fill="black"/>
<path d="M37.5584 45.6608C37.5115 45.6783 37.2536 45.8953 36.9899 46.1415C36.7262 46.3936 36.1987 46.845 35.8178 47.1499C34.5988 48.1348 34.0714 48.7739 33.7666 49.6416C33.626 50.0344 33.6084 50.1926 33.6025 50.7731C33.6025 51.4062 33.6143 51.4707 33.7842 51.8283C34.0128 52.3091 34.4171 52.7136 34.9153 52.9599C35.2962 53.1475 35.3021 53.1475 36.2105 53.1475C37.0309 53.1416 37.1481 53.1299 37.4236 53.0068C38.0038 52.7488 38.5253 52.0453 38.6777 51.3007C38.7832 50.7906 38.7129 49.7002 38.5019 48.7094C38.4081 48.2345 38.2675 47.4723 38.203 47.0092C38.1386 46.5519 38.0389 46.0829 37.9803 45.9715C37.869 45.7428 37.6873 45.6139 37.5584 45.6608Z" fill="black"/>
<path d="M51.4362 53.4579C51.1373 53.7393 50.6274 54.1791 50.3051 54.437C48.7872 55.633 48.166 56.5828 48.0664 57.8667C47.9902 58.8927 48.4415 59.7252 49.3615 60.2235L49.719 60.417H50.686C51.5475 60.417 51.6823 60.4053 51.9226 60.2939C52.2684 60.1297 52.5672 59.8659 52.7958 59.5083C53.2881 58.7403 53.3467 57.8022 53.0068 56.0786C52.8896 55.4982 52.7431 54.6657 52.6844 54.226C52.5497 53.3231 52.5321 53.2586 52.368 53.071C52.157 52.8424 52.0163 52.901 51.4362 53.4579Z" fill="black"/>
<path d="M21.1843 54.4599C20.9147 54.712 20.3697 55.181 19.9712 55.5034C18.4357 56.7463 17.9083 57.5202 17.7559 58.7338C17.6153 59.8712 18.0724 60.7916 19.0452 61.3017C19.3558 61.4658 19.3793 61.4717 20.3287 61.4717C21.5359 61.4717 21.6942 61.4189 22.1923 60.8854C22.9424 60.0822 23.0655 59.1207 22.667 57.1333C22.5732 56.6467 22.4267 55.8376 22.3505 55.3275C22.2685 54.8116 22.1864 54.3661 22.1689 54.3309C22.0751 54.1609 21.8817 53.9967 21.7821 53.9967C21.7235 53.9967 21.4539 54.2019 21.1843 54.4599Z" fill="black"/>
<path d="M41.5084 54.853C41.2564 55.0934 40.8638 55.4452 40.6352 55.6269C38.8185 57.0926 38.3496 57.6965 38.1094 58.8573C37.8515 60.1588 38.3027 61.1965 39.3694 61.7183C39.6682 61.8707 39.762 61.8824 40.5004 61.9C41.444 61.9235 41.8542 61.8531 42.1824 61.6186C42.5047 61.3841 42.8563 60.921 43.0204 60.5223C43.1435 60.2116 43.1552 60.0943 43.1552 59.2442C43.1494 58.4176 43.1259 58.2006 42.9618 57.4033C42.8563 56.9108 42.7157 56.1311 42.6512 55.6797C42.5223 54.8179 42.4403 54.5716 42.2527 54.4661C42.0535 54.3606 41.9831 54.3957 41.5084 54.853Z" fill="black"/>
<path d="M31.4578 54.9413C31.2175 55.1699 30.6959 55.6272 30.2915 55.9497C28.633 57.2864 28.1231 58.0544 27.9766 59.4204C27.9297 59.8601 28.0645 60.5402 28.2638 60.8802C28.4689 61.2261 28.9495 61.66 29.3421 61.8417C29.6586 61.9941 29.7172 62 30.6138 62C31.4695 62 31.5808 61.9824 31.8563 61.8593C32.4775 61.5837 32.9873 60.8216 33.1046 59.9774C33.1925 59.3911 33.1397 58.8341 32.8701 57.4271C32.7471 56.7822 32.6123 56.0083 32.5771 55.7093C32.4892 55.0175 32.4365 54.8357 32.2724 54.6599C32.0672 54.4429 31.9266 54.4898 31.4578 54.9413Z" fill="black"/>
</svg>
