<svg width="72" height="62" viewBox="0 0 72 62" fill="none" xmlns="http://www.w3.org/2000/svg">
<path d="M54.2451 0.0711395C54.1439 0.116083 53.9582 0.245296 53.8232 0.368891C53.4069 0.739676 51.7079 2.80708 49.317 5.83516C48.5238 6.84077 47.7699 7.76212 47.6405 7.8801C47.2861 8.20032 46.9542 8.3183 46.5097 8.29583C46.1722 8.27897 46.0822 8.24526 45.4408 7.87448C44.2819 7.21156 43.6181 6.91381 42.493 6.54302C40.7265 5.96999 38.8193 5.68909 36.1977 5.6273C32.4397 5.54303 28.4342 5.96437 22.9716 7.02055C20.8451 7.43066 20.6144 7.37448 19.1911 6.0655C17.1996 4.24528 14.9605 2.41383 14.3305 2.09922C14.1786 2.02057 13.9142 1.92506 13.751 1.89136C13.1097 1.76776 12.4402 2.13293 11.6076 3.06551C10.91 3.84641 10.4993 4.38011 9.79611 5.4419C7.69208 8.60481 5.52054 12.2846 3.43339 16.2284C1.52063 19.8463 0.10857 22.9025 0.0129327 23.6328C-0.0658278 24.2283 0.209834 24.5991 0.986187 24.9643C1.89193 25.3856 2.31386 25.6216 3.93408 26.6104C6.5613 28.2059 6.90447 28.3912 8.0465 28.7901C8.59782 28.9811 9.10977 29.1778 9.18853 29.2283C9.39105 29.3632 9.45856 29.5317 9.71172 30.5261C10.2518 32.6553 10.3193 33.1384 10.1224 33.5654C10.0661 33.689 9.59358 34.2957 9.07039 34.9137C7.52893 36.7339 7.28702 37.0541 6.95511 37.7171C6.60631 38.4081 6.49942 38.7901 6.47129 39.4081C6.44316 40.0935 6.5163 40.4867 6.76946 40.9923C7.02261 41.4867 7.3264 41.8294 7.79334 42.1496C8.35029 42.5316 8.88474 42.7002 9.61046 42.7339C10.4993 42.7732 11.2701 42.5316 11.8439 42.0429C12.0914 41.835 14.2911 39.5092 16.7608 36.8463C18.8592 34.5879 18.8761 34.5598 19.1348 34.0429C19.3543 33.5991 19.3711 33.5373 19.388 32.9924C19.4105 32.5204 19.388 32.3407 19.2924 32.0317C18.9661 30.9643 18.1222 30.0991 17.0364 29.7339C16.8002 29.6553 16.5639 29.6272 16.0519 29.6272C14.9774 29.6272 14.4148 29.8407 13.2109 30.7171C12.7327 31.0654 12.5021 31.2058 12.474 31.1553C12.4346 31.0822 11.8158 28.2283 11.6414 27.3014C11.5345 26.7396 11.5345 26.7059 11.6301 26.4025C11.6864 26.2283 12.6934 24.38 13.8691 22.2958C16.1476 18.2565 17.7565 15.352 18.6117 13.7565C19.9393 11.2621 20.0856 11.0262 20.6257 10.5262C20.8957 10.2733 21.4639 9.97559 21.959 9.82953C22.5497 9.65537 28.0798 8.80144 30.1726 8.56549C32.1022 8.34077 33.0642 8.28459 34.9826 8.28459C36.1415 8.27897 37.1822 8.30706 37.5704 8.34639C41.2778 8.73964 41.0584 8.71155 41.0584 8.84077C41.0584 8.95874 40.9853 8.96998 39.1906 9.22279C38.1611 9.36885 36.7997 9.53739 36.164 9.59919C34.2794 9.7902 33.3399 10.0205 32.316 10.5318C31.5621 10.9138 31.2358 11.1497 30.3132 11.9812C30.1163 12.161 29.3906 12.7509 28.7099 13.2958C27.1797 14.5205 26.6902 14.998 26.4258 15.5261C26.257 15.8744 26.2345 15.9643 26.2345 16.3688C26.2345 16.7565 26.2627 16.8632 26.4033 17.1497C26.6171 17.5711 27.0559 18.0149 27.6354 18.3913C28.9968 19.2789 30.2176 19.6441 31.579 19.5823C32.4229 19.543 33.1036 19.3744 34.1331 18.9475C35.5508 18.3632 35.8771 18.2677 37.3173 18.0317C38.9262 17.7621 40.8277 17.4756 42.6055 17.2396C44.0288 17.043 44.3101 17.0486 44.7826 17.2621C45.0695 17.3913 45.5421 17.7902 53.21 24.4812C57.5137 28.2339 62.7231 32.807 62.9369 33.0261C63.9383 34.0485 64.0733 35.1384 63.3476 36.3294C62.965 36.9642 62.2787 37.571 61.2548 38.189C60.681 38.5373 60.2703 38.6721 59.9103 38.6215C59.3814 38.5541 59.0383 38.3126 57.4574 36.9249C54.7177 34.5204 51.8373 32.071 51.466 31.8238C50.7966 31.3744 50.324 31.307 49.722 31.571C49.272 31.7733 49.0469 32.0766 49.0469 32.4924C49.0469 32.8575 49.3282 33.3238 49.9302 33.9586C50.0765 34.1159 51.8373 35.6272 53.8457 37.3182C55.9329 39.0822 57.5418 40.4755 57.6206 40.5991C57.8456 40.9474 57.8962 41.1946 57.8625 41.7845C57.8231 42.5036 57.705 42.9305 57.3449 43.6721C56.9849 44.4249 56.4729 45.1496 55.9104 45.7283C55.3928 46.2563 55.2015 46.3631 54.7571 46.3631C54.4702 46.3687 54.3633 46.335 54.0482 46.1608C53.8401 46.0429 51.7417 44.4024 49.3789 42.5092C47.0161 40.6215 44.9964 39.0148 44.8895 38.9418C44.7264 38.8294 44.6307 38.8126 44.1863 38.8126C43.2637 38.8126 42.9486 39.0991 42.943 39.9361C42.943 40.4305 43.0387 40.6665 43.3874 41.0204C43.8263 41.4698 48.2425 45.0035 50.7966 46.9474C51.9948 47.8575 52.248 48.1103 52.4955 48.6327C52.6699 48.9979 52.6756 49.026 52.6699 49.7676C52.6643 51.0709 52.338 51.9867 51.6348 52.6889C50.729 53.5934 49.4182 53.79 48.265 53.1945C47.888 52.9979 48.0849 53.1552 44.9627 50.5766C41.9979 48.1327 40.1695 46.6552 39.8207 46.4136C39.185 45.9811 38.0992 45.5766 37.7336 45.6384C37.2554 45.7226 36.9572 46.1665 36.9516 46.8069C36.9516 47.2901 37.0866 47.5934 37.4804 47.953C37.6379 48.099 39.742 49.8013 42.1498 51.7339C44.5576 53.6608 46.5772 55.3181 46.6335 55.4136C46.8304 55.7338 46.7348 56.3181 46.3635 57.026C45.8853 57.9361 44.8839 58.7114 43.4775 59.2507C43.0105 59.4305 42.4029 59.4473 41.9641 59.2956C41.7504 59.2226 40.7321 58.526 38.3918 56.8574C34.7069 54.2282 34.8194 54.3125 33.4242 53.2058L32.4004 52.3912L32.5129 52.2507C32.5691 52.1721 33.0417 51.6496 33.5593 51.0822C35.3258 49.1384 35.5958 48.6384 35.5283 47.408C35.4495 45.9361 34.4538 44.7058 33.0698 44.3687C32.2766 44.1777 31.3146 44.3238 30.6226 44.7395C30.1669 45.0148 30.1276 45.0541 29.2781 46.0878C28.2936 47.2901 27.1797 48.5878 25.2613 50.7732C24.3837 51.7732 23.5792 52.7226 23.4779 52.8855C22.9435 53.7226 23.011 54.7507 23.6748 55.7956C24.2712 56.7451 25.3513 57.3518 26.4427 57.3518C27.0278 57.3518 27.3878 57.2675 27.9335 57.0091C28.468 56.7563 28.9799 56.3013 30.0094 55.1552C30.3695 54.7563 30.6789 54.4305 30.7014 54.4305C30.7183 54.4305 31.4552 54.9642 32.3385 55.6215C36.1021 58.4136 37.0585 59.1215 38.4987 60.1495C40.102 61.3012 40.5915 61.5765 41.4241 61.8181C43.1737 62.3181 45.1371 61.7788 46.8979 60.3069C47.8824 59.4866 48.6025 58.408 49.0188 57.1271C49.2776 56.3293 49.4239 56.2114 50.2509 56.1215C51.5279 55.9754 52.4674 55.5372 53.3169 54.7001C54.442 53.5878 55.0215 52.3069 55.2634 50.3855C55.4097 49.2339 55.5053 49.0148 55.9666 48.7844C58.3576 47.5709 59.7134 45.6384 60.3322 42.5316C60.4391 41.9979 60.5629 41.4867 60.6079 41.3968C60.7147 41.189 60.8666 41.1103 61.5699 40.8856C64.2083 40.0541 65.8229 38.1833 66.3236 35.3856C66.6724 33.4755 66.1436 32.144 64.6134 31.0822C64.2308 30.8182 63.792 30.4587 63.2857 30.0148C63.2238 29.9587 63.2801 29.8519 63.612 29.3969C64.6809 27.9081 65.4516 25.9924 65.8398 23.8688C66.1492 22.1778 66.2449 21.8969 66.723 21.2564C66.8637 21.0711 67.595 20.2621 68.3489 19.4587C71.6737 15.925 72 15.5318 72 15.0767C72 14.8351 71.8987 14.5542 71.7356 14.3295C71.6231 14.1834 57.0749 1.61046 55.7753 0.53743C55.1846 0.0542856 54.6558 -0.108635 54.2451 0.0711395ZM55.1959 3.56551C55.3872 3.66663 58.1888 5.90819 59.8484 7.29021C61.3223 8.52054 62.6275 9.66099 65.2491 12.0149C66.5036 13.1441 67.8144 14.3014 68.1632 14.5936C68.7933 15.1104 68.7989 15.1216 68.6977 15.234C68.5683 15.3857 66.4418 17.7115 65.3897 18.8463C64.9566 19.3183 64.5853 19.6947 64.5628 19.6947C64.5459 19.689 61.4067 17.1048 57.5868 13.9587C53.7726 10.8071 50.639 8.22279 50.6278 8.21717C50.6053 8.1947 51.3029 7.35763 53.2888 5.0037C54.5714 3.49247 54.5827 3.47562 54.7965 3.47562C54.9202 3.47562 55.0946 3.51495 55.1959 3.56551ZM13.9929 4.83517C14.1336 4.96438 14.848 5.6273 15.5738 6.30707C16.2995 6.99246 17.1265 7.74527 17.4077 7.98122C17.734 8.2565 17.9647 8.50369 18.0491 8.66661C18.1785 8.90256 18.1841 8.93627 18.1166 9.18346C18.0772 9.32953 17.9028 9.66661 17.7284 9.93065C17.554 10.1947 15.7425 13.4475 13.706 17.1553C11.6639 20.8632 9.68922 24.4474 9.31792 25.1216C8.65971 26.3126 8.6372 26.3463 8.52469 26.2677C8.45718 26.2227 7.21389 25.498 5.75682 24.6553C4.29975 23.8126 3.08459 23.0991 3.04521 23.071C2.99458 23.0317 3.26461 22.4475 4.08035 20.8182C7.56831 13.8464 10.3474 9.1329 13.4978 4.86325C13.6047 4.72281 13.7004 4.60483 13.7116 4.59921C13.7229 4.59921 13.8523 4.70595 13.9929 4.83517Z" fill="black"/>
<path d="M20.8506 34.7676C20.3893 34.8519 19.8717 35.0485 19.5285 35.2676C19.3316 35.3968 18.7803 35.9193 18.1334 36.5991C13.6721 41.2732 11.8663 43.5485 11.495 44.9642C11.3768 45.4024 11.3768 46.2676 11.495 46.7001C11.7425 47.6271 12.4682 48.5035 13.329 48.9192C13.6159 49.0541 13.9928 49.1833 14.2853 49.2395L14.7692 49.335L15.3824 49.0316L15.9956 48.7282L17.6214 46.9024C20.7775 43.3631 24.0854 39.5653 24.2654 39.2901C24.5186 38.8968 24.6311 38.4867 24.6311 37.9417C24.6311 37.3743 24.5242 36.953 24.2373 36.4024C23.8547 35.6665 23.2022 35.0991 22.4933 34.8743C22.0826 34.7451 21.2613 34.689 20.8506 34.7676Z" fill="black"/>
<path d="M26.1501 39.8521C25.52 39.9701 24.9012 40.3015 24.3443 40.824C23.6467 41.4757 17.8409 48.0094 17.1264 48.9476C16.6595 49.5599 16.3613 50.4082 16.3613 51.1105C16.367 52.6723 17.5484 54.0936 19.1067 54.4138C20.125 54.6217 21.2332 54.1891 22.1615 53.2116C22.3077 53.0655 23.4948 51.6891 24.8112 50.161C30.0769 44.0262 30.0544 44.0543 30.2344 43.3071C30.482 42.2678 30.06 41.1386 29.1599 40.4588C28.3498 39.8409 27.3372 39.6386 26.1501 39.8521Z" fill="black"/>
</svg>
