<svg width="50" height="50" viewBox="0 0 50 50" fill="none" xmlns="http://www.w3.org/2000/svg">
<path d="M25 48.4375C20.3645 48.4375 15.8331 47.0629 11.9788 44.4876C8.12455 41.9122 5.1205 38.2518 3.34657 33.9691C1.57265 29.6865 1.10851 24.974 2.01284 20.4276C2.91719 15.8811 5.14939 11.705 8.42719 8.42719C11.705 5.14939 15.8811 2.91719 20.4276 2.01284C24.974 1.10851 29.6865 1.57265 33.9691 3.34657C38.2518 5.1205 41.9122 8.12455 44.4876 11.9788C47.0629 15.8331 48.4375 20.3645 48.4375 25C48.4375 31.216 45.9682 37.1774 41.5728 41.5728C37.1774 45.9682 31.216 48.4375 25 48.4375ZM25 4.6875C20.9826 4.6875 17.0554 5.87881 13.715 8.11077C10.3746 10.3427 7.7711 13.5151 6.2337 17.2267C4.69629 20.9384 4.29404 25.0225 5.0778 28.9628C5.86156 32.903 7.79614 36.5224 10.6369 39.3631C13.4776 42.2039 17.097 44.1384 21.0372 44.9222C24.9775 45.706 29.0616 45.3037 32.7733 43.7663C36.4849 42.2289 39.6573 39.6254 41.8892 36.285C44.1212 32.9446 45.3125 29.0174 45.3125 25C45.3125 19.6128 43.1724 14.4462 39.3631 10.6369C35.5538 6.82756 30.3872 4.6875 25 4.6875Z" fill="#0056ab"/>
<path d="M33.7344 31.0469L25 22.3281L16.2656 31.0469C15.9729 31.3379 15.5768 31.5012 15.164 31.5012C14.7513 31.5012 14.3552 31.3379 14.0625 31.0469C13.7715 30.7541 13.6081 30.3581 13.6081 29.9453C13.6081 29.5325 13.7715 29.1365 14.0625 28.8437L24 18.9062C24.2662 18.6429 24.6255 18.4952 25 18.4952C25.3744 18.4952 25.7338 18.6429 26 18.9062L35.9375 28.8437C36.2285 29.1365 36.3918 29.5325 36.3918 29.9453C36.3918 30.3581 36.2285 30.7541 35.9375 31.0469C35.6447 31.3379 35.2487 31.5012 34.8359 31.5012C34.4231 31.5012 34.0271 31.3379 33.7344 31.0469Z" fill="#0056ab"/>
</svg>
